<?xml version="1.0" encoding="UTF-8"?>
<svg version="1.1" xmlns="http://www.w3.org/2000/svg" width="200px" height="65px">
<path d="M0 0 C251.79 0 503.58 0 763 0 C763 82.17 763 164.34 763 249 C511.21 249 259.42 249 0 249 C0 166.83 0 84.66 0 0 Z " fill="#FEFEFE" transform="translate(0,0)"/>
<path d="M0 0 C1.88529922 0.00666183 1.88529922 0.00666183 3.8086853 0.01345825 C4.50148087 0.0131662 5.19427643 0.01287415 5.9080658 0.01257324 C8.20237673 0.01396872 10.49636456 0.02953984 12.7906189 0.04519653 C14.37959618 0.0489259 15.96857575 0.05177323 17.55755615 0.05377197 C21.74319794 0.0614145 25.9287013 0.08106822 30.11428833 0.10317993 C34.38398363 0.12362508 38.65370127 0.13277083 42.9234314 0.14285278 C51.30370331 0.1643136 59.68386264 0.19845692 68.0640564 0.24050903 C69.12846159 5.56347781 68.51744735 9.36744549 66.9390564 14.49050903 C66.46727183 16.09715354 65.99593011 17.70392815 65.5249939 19.31082153 C65.28103882 20.12840942 65.03708374 20.94599731 64.78573608 21.7883606 C63.87344687 24.88816875 63.02306327 28.00297247 62.17514038 31.12088013 C60.02803301 39.0076181 57.68115613 46.811476 55.17733765 54.59207153 C53.99895672 58.45385323 53.02300039 62.31904018 52.0640564 66.24050903 C51.0640564 69.67800903 51.0640564 69.67800903 50.0640564 72.24050903 C47.19764542 73.67371452 44.73851581 73.37572413 41.53475952 73.38577271 C40.86468369 73.38913132 40.19460785 73.39248993 39.50422668 73.39595032 C37.28456785 73.40546593 35.06498437 73.4074036 32.8453064 73.40847778 C31.30595874 73.41168947 29.7666114 73.41505348 28.2272644 73.41856384 C24.99918917 73.42455631 21.77114071 73.42640358 18.5430603 73.42581177 C14.40001749 73.42571003 10.25714562 73.43937354 6.11414337 73.45658398 C2.93491827 73.467683 -0.24426519 73.46973164 -3.42350769 73.46920204 C-4.95137624 73.4703849 -6.47924578 73.47482369 -8.00709534 73.48253441 C-10.14040234 73.4922941 -12.27333413 73.4894727 -14.40664673 73.48342896 C-15.62195068 73.48485397 -16.83725464 73.48627899 -18.08938599 73.48774719 C-20.9359436 73.24050903 -20.9359436 73.24050903 -22.9359436 71.24050903 C-23.30260024 66.89295394 -22.58735233 63.48962508 -21.21328735 59.38113403 C-19.60631399 54.3954868 -18.115667 49.4058848 -16.75234985 44.34988403 C-16.56937851 43.67333267 -16.38640717 42.99678131 -16.19789124 42.29972839 C-15.82215828 40.90778278 -15.44709929 39.51565507 -15.07269287 38.12335205 C-14.09653458 34.49776206 -13.11004137 30.87498857 -12.1234436 27.25222778 C-11.93242569 26.55077133 -11.74140778 25.84931488 -11.54460144 25.12660217 C-10.05869048 19.67683595 -8.56135467 14.23123013 -6.9984436 8.80300903 C-6.63879517 7.5461731 -6.27914673 6.28933716 -5.90859985 4.99441528 C-4.60334707 1.29882005 -3.97377701 0.32552712 0 0 Z " fill="#54DEF0" transform="translate(98.93594360351563,127.75949096679688)"/>
<path d="M0 0 C1.01974411 -0.00525696 1.01974411 -0.00525696 2.06008911 -0.01062012 C4.31229801 -0.01943875 6.56419403 -0.01358799 8.81640625 -0.00683594 C10.37817444 -0.00818255 11.93994223 -0.01012306 13.50170898 -0.01263428 C16.77689602 -0.01558571 20.05197406 -0.01128733 23.32714844 -0.00195312 C27.53074316 0.00944149 31.7340825 0.00288211 35.93766785 -0.00909805 C39.16322767 -0.01631617 42.3887267 -0.01402896 45.61428833 -0.00884247 C47.16447988 -0.00750583 48.7146769 -0.00915418 50.26486206 -0.01380157 C52.42932818 -0.01886609 54.59337752 -0.01115804 56.7578125 0 C58.60741577 0.00238678 58.60741577 0.00238678 60.49438477 0.00482178 C63.37890625 0.25878906 63.37890625 0.25878906 65.37890625 2.25878906 C64.98222721 8.95620722 62.83173684 15.44258152 61.06640625 21.88378906 C60.59001709 23.63864624 60.59001709 23.63864624 60.10400391 25.42895508 C58.30631534 32.00930358 56.42561501 38.54035658 54.34375 45.03613281 C53.54387455 47.70778158 52.82133547 50.37374598 52.1328125 53.07519531 C51.80531006 54.35825562 51.80531006 54.35825562 51.47119141 55.66723633 C51.04549895 57.35207055 50.62680985 59.03869516 50.21630859 60.72729492 C50.02117676 61.50081299 49.82604492 62.27433105 49.625 63.07128906 C49.45669678 63.75835937 49.28839355 64.44542969 49.11499023 65.15332031 C48.14185478 67.93684275 47.21216841 69.91794002 45.37890625 72.25878906 C42.32270813 72.86006165 42.32270813 72.86006165 38.52075195 72.82641602 C37.82781036 72.82714615 37.13486877 72.82787628 36.42092896 72.82862854 C34.13138426 72.82514603 31.84387647 72.78625934 29.5546875 72.74707031 C27.96714896 72.7377444 26.37959603 72.73062724 24.79203796 72.72563171 C20.61429082 72.70654401 16.43741336 72.65742912 12.26000977 72.60211182 C7.99702724 72.55095684 3.73390413 72.52812577 -0.52929688 72.50292969 C-8.89362821 72.44931104 -17.25725279 72.36397811 -25.62109375 72.25878906 C-26.31457138 67.84751365 -26.81162813 64.59777827 -25.46875 60.30957031 C-25.19063477 59.39264404 -24.91251953 58.47571777 -24.62597656 57.53100586 C-24.31499023 56.55429932 -24.00400391 55.57759277 -23.68359375 54.57128906 C-23.0326812 52.43883425 -22.38299374 50.30600519 -21.734375 48.17285156 C-21.21738037 46.49304199 -21.21738037 46.49304199 -20.68994141 44.77929688 C-18.84121883 38.69008274 -17.11038767 32.5674776 -15.37109375 26.44628906 C-15.04246338 25.29749268 -14.71383301 24.14869629 -14.37524414 22.96508789 C-14.05934326 21.85931396 -13.74344238 20.75354004 -13.41796875 19.61425781 C-13.11439453 18.55255371 -12.81082031 17.49084961 -12.49804688 16.39697266 C-11.38460632 12.41251694 -10.35155621 8.40840844 -9.34082031 4.39672852 C-7.66294578 -0.58737842 -4.69837602 0.00606292 0 0 Z " fill="#56F1BC" transform="translate(76.62109375,44.7412109375)"/>
<path d="M0 0 C1.07314453 -0.020625 2.14628906 -0.04125 3.25195312 -0.0625 C10.76761758 -0.09931893 16.80731442 0.43660618 22.9375 5.1875 C25.33089993 10.07402486 25.18969276 14.91828072 24.4375 20.25 C22.62946596 23.32365786 21.57710536 24.68019732 18.4375 26.25 C19.365625 26.848125 20.29375 27.44625 21.25 28.0625 C25.94241803 31.28278689 25.94241803 31.28278689 27.4375 33.25 C28.29280575 38.21607755 28.71490093 43.79485352 26.3359375 48.3671875 C22.24337205 52.76614822 17.32160122 54.083732 11.4519043 54.42211914 C7.98645366 54.48247349 4.52825426 54.47356207 1.0625 54.4375 C-0.13761719 54.43685547 -1.33773438 54.43621094 -2.57421875 54.43554688 C-11.42204397 54.39045603 -11.42204397 54.39045603 -12.5625 53.25 C-12.66111598 51.62872577 -12.69048767 50.00317632 -12.69189453 48.37890625 C-12.69504669 47.34113037 -12.69819885 46.30335449 -12.70144653 45.23413086 C-12.6994223 44.10499268 -12.69739807 42.97585449 -12.6953125 41.8125 C-12.69674759 40.08688843 -12.69674759 40.08688843 -12.69821167 38.32641602 C-12.69889369 35.88850856 -12.6970379 33.4505993 -12.69287109 31.01269531 C-12.68752317 27.26623482 -12.69281539 23.51989423 -12.69921875 19.7734375 C-12.69855797 17.41145807 -12.69727682 15.04947871 -12.6953125 12.6875 C-12.69733673 11.55836182 -12.69936096 10.42922363 -12.70144653 9.26586914 C-12.69829437 8.22809326 -12.69514221 7.19031738 -12.69189453 6.12109375 C-12.69109894 5.20255615 -12.69030334 4.28401855 -12.68948364 3.33764648 C-12.3612003 -2.05942319 -4.07535164 0.01909948 0 0 Z " fill="#050505" transform="translate(371.5625,91.75)"/>
<path d="M0 0 C1.18510414 -0.00287018 1.18510414 -0.00287018 2.39414978 -0.00579834 C4.06265583 -0.00715833 5.73117253 -0.00347488 7.3996582 0.00488281 C9.95873655 0.01559942 12.51711517 0.00497418 15.07617188 -0.0078125 C16.69661614 -0.00649115 18.31705996 -0.00392927 19.9375 0 C20.70522232 -0.00404846 21.47294464 -0.00809692 22.26393127 -0.01226807 C27.67241268 0.03569393 27.67241268 0.03569393 29.90234375 2.265625 C29.52569643 9.86287703 27.31745116 17.23183859 25.46484375 24.578125 C25.15224609 25.85236328 24.83964844 27.12660156 24.51757812 28.43945312 C24.21271484 29.65697266 23.90785156 30.87449219 23.59375 32.12890625 C23.31732666 33.23532471 23.04090332 34.34174316 22.75610352 35.48168945 C21.90234375 38.265625 21.90234375 38.265625 19.90234375 41.265625 C16.93453155 41.54465171 14.17820101 41.6373844 11.2109375 41.59375 C9.92027122 41.59094025 9.92027122 41.59094025 8.60353088 41.58807373 C6.78358082 41.58134636 4.96364538 41.56741829 3.14379883 41.546875 C0.34768345 41.51571237 -2.44786881 41.50590502 -5.24414062 41.5 C-7.0091215 41.4908307 -8.77409662 41.48045516 -10.5390625 41.46875 C-11.8015255 41.46237518 -11.8015255 41.46237518 -13.0894928 41.45587158 C-18.98050764 41.38277361 -18.98050764 41.38277361 -20.09765625 40.265625 C-20.51398725 32.51024985 -18.24357781 25.60800955 -16.09765625 18.265625 C-15.88915039 17.53375977 -15.68064453 16.80189453 -15.46582031 16.04785156 C-14.83585342 13.84536458 -14.18867195 11.64872816 -13.53515625 9.453125 C-13.33768799 8.76549072 -13.14021973 8.07785645 -12.93676758 7.36938477 C-10.68459533 0.0176047 -6.97804601 -0.0368949 0 0 Z " fill="#57EAD3" transform="translate(152.09765625,75.734375)"/>
<path d="M0 0 C5.53588533 -0.02464775 11.071739 -0.04283496 16.60766602 -0.05493164 C18.4924373 -0.05997244 20.37720465 -0.06680498 22.26196289 -0.07543945 C24.96501636 -0.08751617 27.66801831 -0.09323068 30.37109375 -0.09765625 C31.21900986 -0.10281754 32.06692596 -0.10797882 32.9405365 -0.11329651 C34.96071068 -0.11349195 36.98077934 -0.06206211 39 0 C40 1 40 1 40.265625 3.78515625 C40.17779287 9.52498597 38.3252569 14.96267858 36.75 20.4375 C36.44964844 21.53126953 36.14929688 22.62503906 35.83984375 23.75195312 C34.1003634 29.89935069 31.96340895 35.35190472 29 41 C23.60653012 41.02464849 18.21309275 41.04283531 12.81958008 41.05493164 C10.98331125 41.05997231 9.14704646 41.06680477 7.31079102 41.07543945 C4.67723599 41.08751672 2.04373384 41.09323081 -0.58984375 41.09765625 C-1.82890724 41.10539818 -1.82890724 41.10539818 -3.09300232 41.11329651 C-5.06236368 41.11349205 -7.03161614 41.06204152 -9 41 C-10 40 -10 40 -10.18334961 36.39208984 C-10.12762278 32.2563428 -9.28874314 28.69085529 -8.06640625 24.7265625 C-7.86901352 24.07674408 -7.67162079 23.42692566 -7.46824646 22.75741577 C-6.8433409 20.70993026 -6.20303097 18.66764385 -5.5625 16.625 C-5.13638914 15.23337281 -4.71125046 13.84144755 -4.28710938 12.44921875 C-1.21511431 2.43022863 -1.21511431 2.43022863 0 0 Z " fill="#56E7DB" transform="translate(46,128)"/>
<path d="M0 0 C3.53502458 2.85341304 4.74888834 5.43813301 6 9.75 C7.04449722 13.31248161 8.22856963 16.55627193 9.93359375 19.84375 C12.44463011 24.71695164 14.09493043 29.79852784 15.79882812 34.99609375 C17.09096525 38.814239 18.27666614 41.92917844 21 45 C21.23074219 44.27296875 21.46148437 43.5459375 21.69921875 42.796875 C23.76572683 36.42582241 26.07693054 30.24832572 28.70703125 24.08984375 C30.51413163 19.7713652 32.15151472 15.39292367 33.7890625 11.0078125 C37.02173913 2.97826087 37.02173913 2.97826087 40 0 C46.21270006 -0.56479091 46.21270006 -0.56479091 48.6993866 1.21910095 C50.39701337 3.54362098 50.37441652 4.94217349 50.37231445 7.80688477 C50.38165764 9.26838707 50.38165764 9.26838707 50.39118958 10.75941467 C50.38197983 11.80947189 50.37277008 12.85952911 50.36328125 13.94140625 C50.36402901 15.55933327 50.36402901 15.55933327 50.36479187 17.20994568 C50.3624507 19.49048708 50.35271968 21.77103103 50.33618164 24.05151367 C50.31256978 27.55215416 50.31562293 31.05203441 50.32226562 34.55273438 C50.31668972 36.76562956 50.30958039 38.97852153 50.30078125 41.19140625 C50.30214836 42.76952843 50.30214836 42.76952843 50.30354309 44.37953186 C50.29401108 45.35071457 50.28447906 46.32189728 50.2746582 47.32250977 C50.27005081 48.17949966 50.26544342 49.03648956 50.26069641 49.91944885 C50 52 50 52 48 54 C44.46428571 53.46428571 44.46428571 53.46428571 43 52 C42.87814857 50.65016252 42.82233169 49.29425299 42.79467773 47.93920898 C42.7647599 46.64798378 42.7647599 46.64798378 42.73423767 45.33067322 C42.71752518 44.39526199 42.70081268 43.45985077 42.68359375 42.49609375 C42.66281265 41.54307877 42.64203156 40.59006378 42.62062073 39.60816956 C42.55501823 36.5513559 42.49619082 33.49445344 42.4375 30.4375 C42.39432494 28.37043337 42.35071099 26.30337586 42.30664062 24.23632812 C42.19932599 19.15764405 42.09808909 14.0788703 42 9 C41.73372803 9.82129395 41.46745605 10.64258789 41.19311523 11.48876953 C40.6624646 13.1069458 40.6624646 13.1069458 40.12109375 14.7578125 C39.59793579 16.36100342 39.59793579 16.36100342 39.06420898 17.99658203 C38.20274786 20.42780358 37.28374083 22.61300055 36.0625 24.875 C34.16839048 28.42645536 32.87420617 32.0710521 31.5625 35.875 C26.89308975 49.10025036 26.89308975 49.10025036 24 53 C20.6875 54.125 20.6875 54.125 18 54 C14.40643189 49.08585563 12.23555525 44.04233236 10.0625 38.375 C9.36393776 36.58958674 8.66472077 34.80442953 7.96484375 33.01953125 C7.62952637 32.15924316 7.29420898 31.29895508 6.94873047 30.41259766 C5.36487872 26.38490259 3.68778641 22.39862578 2.0078125 18.41015625 C0.97911243 15.95004794 -0.01217923 13.47675855 -1 11 C-1.01981934 12.23153809 -1.03963867 13.46307617 -1.06005859 14.73193359 C-1.13599182 19.29057661 -1.22472763 23.84889527 -1.31738281 28.40722656 C-1.35572349 30.38209644 -1.3905673 32.35703736 -1.421875 34.33203125 C-1.46741547 37.16692545 -1.52542715 40.0013283 -1.5859375 42.8359375 C-1.59748871 43.72243988 -1.60903992 44.60894226 -1.62094116 45.52230835 C-1.64081085 46.34300812 -1.66068054 47.16370789 -1.68115234 48.00927734 C-1.70113785 49.0951564 -1.70113785 49.0951564 -1.7215271 50.20297241 C-2 52 -2 52 -4 54 C-7.53571429 53.46428571 -7.53571429 53.46428571 -9 52 C-9.10878142 50.48162227 -9.14903597 48.95825655 -9.16113281 47.43603516 C-9.17074036 46.46477692 -9.1803479 45.49351868 -9.19024658 44.49282837 C-9.19449646 43.43558563 -9.19874634 42.3783429 -9.203125 41.2890625 C-9.20882507 40.20998627 -9.21452515 39.13091003 -9.22039795 38.01913452 C-9.22986463 35.73086533 -9.23638852 33.44258241 -9.24023438 31.15429688 C-9.24993942 27.64689423 -9.28094743 24.14007743 -9.3125 20.6328125 C-9.31902967 18.414066 -9.32428028 16.19531528 -9.328125 13.9765625 C-9.3404718 12.92336823 -9.3528186 11.87017395 -9.36553955 10.7850647 C-9.36253845 9.80750214 -9.35953735 8.82993958 -9.35644531 7.82275391 C-9.36009094 6.96195221 -9.36373657 6.10115051 -9.36749268 5.21426392 C-8.4821645 -0.12012876 -4.83453179 -0.6906474 0 0 Z " fill="#121212" transform="translate(232,92)"/>
<path d="M0 0 C6.31041699 4.93704294 10.02395719 11.48874664 11.17578125 19.4296875 C11.48886898 28.65273025 9.24302682 36.76781314 3.37109375 43.94140625 C-2.21518687 49.82743851 -8.69697356 51.67300687 -16.60546875 52.00390625 C-23.60104807 51.85976657 -28.77467742 49.75725874 -34.04296875 45.19140625 C-34.76484375 44.34578125 -35.48671875 43.50015625 -36.23046875 42.62890625 C-36.95234375 41.82453125 -37.67421875 41.02015625 -38.41796875 40.19140625 C-43.61823703 32.83930282 -43.12443535 23.26256906 -42.23046875 14.62890625 C-40.76397874 9.12758697 -37.46578724 5.34772249 -33.23046875 1.62890625 C-32.02390625 0.54609375 -32.02390625 0.54609375 -30.79296875 -0.55859375 C-21.81451681 -6.90920609 -9.10377632 -5.59619175 0 0 Z M-32.23046875 9.62890625 C-36.37051067 15.6911105 -36.86494398 21.41592468 -36.23046875 28.62890625 C-35.5006441 31.24620844 -34.52205175 33.18924947 -33.23046875 35.62890625 C-32.70453125 36.92828125 -32.70453125 36.92828125 -32.16796875 38.25390625 C-28.58867654 42.64142574 -23.38075234 45.0278653 -17.85546875 46.08203125 C-12.27479743 46.35331388 -7.77053428 44.86048128 -3.23046875 41.62890625 C1.61825451 37.02631107 4.00261238 32.69506089 4.20043945 25.99316406 C4.22302744 18.74827798 4.02318513 13.08462374 -1.23046875 7.62890625 C-5.73930117 3.23568492 -9.94166003 1.81055774 -16.16796875 1.31640625 C-23.05108205 1.52657765 -27.81279631 4.47495506 -32.23046875 9.62890625 Z " fill="#0E0E0E" transform="translate(336.23046875,95.37109375)"/>
<path d="M0 0 C0.72489624 -0.0033284 1.44979248 -0.0066568 2.19665527 -0.01008606 C3.72989263 -0.0151505 5.26314101 -0.01749453 6.79638672 -0.01733398 C9.14699343 -0.01952263 11.49713249 -0.03768876 13.84765625 -0.05664062 C15.33593589 -0.05957417 16.82421777 -0.06155923 18.3125 -0.0625 C19.01773804 -0.06968552 19.72297607 -0.07687103 20.44958496 -0.08427429 C25.42742152 -0.06085973 25.42742152 -0.06085973 27.65625 2.16796875 C27.32625 3.48796875 26.99625 4.80796875 26.65625 6.16796875 C16.75625 6.16796875 6.85625 6.16796875 -3.34375 6.16796875 C-3.34375 12.10796875 -3.34375 18.04796875 -3.34375 24.16796875 C-0.56324219 24.15056641 -0.56324219 24.15056641 2.2734375 24.1328125 C4.69270733 24.12343549 7.11197824 24.11433519 9.53125 24.10546875 C11.36623047 24.09290039 11.36623047 24.09290039 13.23828125 24.08007812 C14.98818359 24.07524414 14.98818359 24.07524414 16.7734375 24.0703125 C18.39161377 24.06245728 18.39161377 24.06245728 20.04248047 24.05444336 C22.65625 24.16796875 22.65625 24.16796875 24.65625 25.16796875 C24.16125 27.64296875 24.16125 27.64296875 23.65625 30.16796875 C14.74625 30.16796875 5.83625 30.16796875 -3.34375 30.16796875 C-3.34375 36.10796875 -3.34375 42.04796875 -3.34375 48.16796875 C6.55625 48.16796875 16.45625 48.16796875 26.65625 48.16796875 C27.15125 50.64296875 27.15125 50.64296875 27.65625 53.16796875 C24.66535916 54.66341417 21.59257814 54.33076173 18.3125 54.3359375 C17.58760376 54.3392659 16.86270752 54.3425943 16.11584473 54.34602356 C14.58260737 54.351088 13.04935899 54.35343203 11.51611328 54.35327148 C9.16550657 54.35546013 6.81536751 54.37362626 4.46484375 54.39257812 C2.97656411 54.39551167 1.48828223 54.39749673 0 54.3984375 C-1.05785706 54.40921577 -1.05785706 54.40921577 -2.13708496 54.42021179 C-7.11492152 54.39679723 -7.11492152 54.39679723 -9.34375 52.16796875 C-9.58425903 49.99130249 -9.58425903 49.99130249 -9.57080078 47.25927734 C-9.57064972 46.23837006 -9.57049866 45.21746277 -9.57034302 44.1656189 C-9.56002045 43.06037872 -9.54969788 41.95513855 -9.5390625 40.81640625 C-9.5362326 39.68723785 -9.53340271 38.55806946 -9.53048706 37.39468384 C-9.51926462 33.77733904 -9.49415622 30.16023909 -9.46875 26.54296875 C-9.45872287 24.09505565 -9.44959656 21.64713868 -9.44140625 19.19921875 C-9.41931857 13.18871811 -9.38582074 7.17836092 -9.34375 1.16796875 C-6.35285916 -0.32747667 -3.28007814 0.00517577 0 0 Z " fill="#040404" transform="translate(486.34375,91.83203125)"/>
<path d="M0 0 C3.53571429 0.53571429 3.53571429 0.53571429 5 2 C5.09842768 4.73976116 5.13713784 7.45890695 5.140625 10.19921875 C5.15896171 11.90040392 5.17853281 13.60157615 5.19921875 15.30273438 C5.228133 17.99102413 5.24999836 20.67848828 5.25048828 23.36694336 C5.25383386 25.95761767 5.28845846 28.54637802 5.328125 31.13671875 C5.3210553 31.9338176 5.3139856 32.73091644 5.30670166 33.5521698 C5.43290705 39.37298714 6.81419825 41.93378139 11 46 C14.96318065 48.29447301 18.47808029 48.45985624 23 48 C26.92294374 46.66345379 30.00355883 45.28322781 32.58032227 41.96484375 C34.49056355 37.97551096 34.47704423 34.56965607 34.51171875 30.19921875 C34.52966995 29.36284378 34.54762115 28.52646881 34.56611633 27.66474915 C34.62009509 25.00571666 34.65407461 22.34686239 34.6875 19.6875 C34.72068411 17.87953256 34.75517478 16.0715886 34.79101562 14.26367188 C34.87581424 9.84257676 34.94268441 5.42153336 35 1 C36.65614657 0.61781233 38.32457024 0.28604898 40 0 C42.92256242 2.92256242 41.36937128 13.53456862 41.4050293 17.67089844 C41.42651421 19.54283199 41.46050295 21.4146677 41.50756836 23.28613281 C41.97474765 42.03315662 41.97474765 42.03315662 36.65112305 48.5078125 C30.69193221 53.89337725 24.44807793 55.38894232 16.59375 55.2734375 C10.60475701 54.64206776 6.53658894 51.89708932 2.625 47.4375 C-1.46884517 42.30304055 -2.29738144 38.76702522 -2.265625 32.24609375 C-2.26753845 31.38943619 -2.2694519 30.53277863 -2.27142334 29.65016174 C-2.27278373 27.84042059 -2.26909747 26.03066964 -2.26074219 24.22094727 C-2.25002741 21.44460251 -2.26064904 18.6689029 -2.2734375 15.89257812 C-2.27211614 14.13541523 -2.26955422 12.37825274 -2.265625 10.62109375 C-2.26967346 9.78775009 -2.27372192 8.95440643 -2.27789307 8.09580994 C-2.22992731 2.22992731 -2.22992731 2.22992731 0 0 Z " fill="#0D0D0D" transform="translate(591,92)"/>
<path d="M0 0 C3.11254552 1.27331407 4.46085091 3.3107037 6.5234375 5.94140625 C7.30332031 6.93140625 8.08320312 7.92140625 8.88671875 8.94140625 C9.63308594 9.91078125 10.37945313 10.88015625 11.1484375 11.87890625 C11.78136719 12.68328125 12.41429687 13.48765625 13.06640625 14.31640625 C17.1484375 19.59104996 17.1484375 19.59104996 17.1484375 21.87890625 C22.1070809 17.23988075 25.87286359 11.9448263 29.77539062 6.41015625 C30.28134766 5.7140625 30.78730469 5.01796875 31.30859375 4.30078125 C31.75855713 3.6675293 32.20852051 3.03427734 32.67211914 2.38183594 C34.45729067 0.56448586 35.63742145 0.16724657 38.1484375 -0.12109375 C38.8084375 0.20890625 39.4684375 0.53890625 40.1484375 0.87890625 C39.71953889 6.03543732 37.06586642 8.9749683 33.8984375 12.81640625 C33.18107422 13.70875977 33.18107422 13.70875977 32.44921875 14.61914062 C29.39281765 18.40858102 26.27233038 22.14505618 23.1484375 25.87890625 C24.57454533 30.29267016 26.77516416 32.92006848 29.9609375 36.25390625 C40.1484375 47.2080488 40.1484375 47.2080488 40.1484375 52.87890625 C37.6734375 53.37390625 37.6734375 53.37390625 35.1484375 53.87890625 C33.04301723 51.29659237 30.93932481 48.71287621 28.8359375 46.12890625 C28.24103516 45.39929688 27.64613281 44.6696875 27.03320312 43.91796875 C26.45634766 43.20898438 25.87949219 42.5 25.28515625 41.76953125 C24.75623779 41.12016602 24.22731934 40.47080078 23.68237305 39.80175781 C22.13025331 37.85611162 20.63172798 35.87736315 19.1484375 33.87890625 C14.60488775 35.44343046 12.41200831 39.05659489 9.6484375 42.75390625 C3.22259485 51.24582365 3.22259485 51.24582365 0.1484375 53.87890625 C-2.1015625 53.62890625 -2.1015625 53.62890625 -3.8515625 52.87890625 C-3.3189188 48.64776472 -2.00615534 46.38303701 0.7109375 43.12890625 C1.77828125 41.83339844 1.77828125 41.83339844 2.8671875 40.51171875 C5.73352988 37.20364552 8.7201736 34.01901784 11.77734375 30.88671875 C13.3464294 29.01281007 13.3464294 29.01281007 13.0859375 26.91015625 C11.90161184 24.34411732 10.39499307 22.42760512 8.5859375 20.25390625 C7.51666016 18.94679688 7.51666016 18.94679688 6.42578125 17.61328125 C4.90327722 15.78523181 3.37457977 13.96232349 1.83984375 12.14453125 C1.11667969 11.273125 0.39351562 10.40171875 -0.3515625 9.50390625 C-1.021875 8.71242188 -1.6921875 7.9209375 -2.3828125 7.10546875 C-3.8515625 4.87890625 -3.8515625 4.87890625 -3.8515625 0.87890625 C-1.8515625 -0.12109375 -1.8515625 -0.12109375 0 0 Z " fill="#0E0E0E" transform="translate(646.8515625,92.12109375)"/>
<path d="M0 0 C3.53571429 0.53571429 3.53571429 0.53571429 5 2 C5.0928726 3.41225046 5.11746772 4.82908934 5.11352539 6.24438477 C5.11341209 7.59567223 5.11341209 7.59567223 5.11329651 8.97425842 C5.10813522 9.95341721 5.10297394 10.93257599 5.09765625 11.94140625 C5.0962413 12.93881332 5.09482635 13.9362204 5.09336853 14.96385193 C5.08775114 18.16343124 5.07519571 21.36294169 5.0625 24.5625 C5.05748724 26.72591045 5.05292395 28.88932199 5.04882812 31.05273438 C5.03777607 36.36851325 5.02102104 41.68425171 5 47 C5.81267334 46.99476318 6.62534668 46.98952637 7.46264648 46.98413086 C11.12092322 46.96343006 14.77918767 46.95036197 18.4375 46.9375 C19.71689453 46.92912109 20.99628906 46.92074219 22.31445312 46.91210938 C23.52939453 46.90888672 24.74433594 46.90566406 25.99609375 46.90234375 C27.12200928 46.89710693 28.2479248 46.89187012 29.40795898 46.88647461 C32 47 32 47 33 48 C33.04063832 49.66617115 33.042721 51.33388095 33 53 C28.69949511 55.15025244 22.97272618 54.22697178 18.1965332 54.24023438 C16.07398399 54.24994745 13.95240032 54.28097427 11.83007812 54.3125 C10.48177658 54.31902955 9.13346812 54.32428021 7.78515625 54.328125 C6.55676025 54.3374707 5.32836426 54.34681641 4.06274414 54.35644531 C1 54 1 54 -0.66815186 52.77815247 C-2.40720317 50.45634243 -2.37443166 49.07845546 -2.37231445 46.19311523 C-2.37854324 45.21878036 -2.38477203 44.2444455 -2.39118958 43.24058533 C-2.38197983 42.19052811 -2.37277008 41.14047089 -2.36328125 40.05859375 C-2.36377975 38.97997574 -2.36427826 37.90135773 -2.36479187 36.79005432 C-2.3624507 34.50951292 -2.35271968 32.22896897 -2.33618164 29.94848633 C-2.31256978 26.44784584 -2.31562293 22.94796559 -2.32226562 19.44726562 C-2.31668972 17.23437044 -2.30958039 15.02147847 -2.30078125 12.80859375 C-2.30169266 11.7565123 -2.30260406 10.70443085 -2.30354309 9.62046814 C-2.29401108 8.64928543 -2.28447906 7.67810272 -2.2746582 6.67749023 C-2.27005081 5.82050034 -2.26544342 4.96351044 -2.26069641 4.08055115 C-2 2 -2 2 0 0 Z " fill="#0E0E0E" transform="translate(547,92)"/>
<path d="M0 0 C1 1 1 1 1.12025452 2.82862854 C1.11803391 3.62582809 1.11581329 4.42302765 1.11352539 5.24438477 C1.11341209 6.59567223 1.11341209 6.59567223 1.11329651 7.97425842 C1.10813522 8.95341721 1.10297394 9.93257599 1.09765625 10.94140625 C1.0962413 11.93881332 1.09482635 12.9362204 1.09336853 13.96385193 C1.08775114 17.16343124 1.07519571 20.36294169 1.0625 23.5625 C1.05748724 25.72591045 1.05292395 27.88932199 1.04882812 30.05273438 C1.03777607 35.36851325 1.02102104 40.68425171 1 46 C1.77714355 45.98952637 2.55428711 45.97905273 3.35498047 45.96826172 C6.861621 45.92679718 10.36821006 45.90070422 13.875 45.875 C15.09832031 45.85824219 16.32164062 45.84148437 17.58203125 45.82421875 C18.74863281 45.81777344 19.91523438 45.81132812 21.1171875 45.8046875 C22.19597168 45.79421387 23.27475586 45.78374023 24.38623047 45.77294922 C27 46 27 46 29 48 C29 49.32 29 50.64 29 52 C24.69949511 54.15025244 18.97272618 53.22697178 14.1965332 53.24023438 C12.07398399 53.24994745 9.95240032 53.28097427 7.83007812 53.3125 C6.48177658 53.31902955 5.13346812 53.32428021 3.78515625 53.328125 C2.55676025 53.3374707 1.32836426 53.34681641 0.06274414 53.35644531 C-3 53 -3 53 -4.6701355 51.78587341 C-6.42818725 49.42498786 -6.36270073 47.99739613 -6.34057617 45.06958008 C-6.34034958 44.06876907 -6.34012299 43.06795807 -6.33988953 42.03681946 C-6.32440567 40.95861435 -6.30892181 39.88040924 -6.29296875 38.76953125 C-6.28872391 37.66397385 -6.28447906 36.55841644 -6.28010559 35.4193573 C-6.26329437 31.88349188 -6.22563685 28.34819355 -6.1875 24.8125 C-6.17245636 22.41732593 -6.1587674 20.02214294 -6.14648438 17.62695312 C-6.11338285 11.75110815 -6.06315893 5.87559458 -6 0 C-3.49749232 -1.25125384 -2.59701335 -0.83774624 0 0 Z " fill="#0E0E0E" transform="translate(439,93)"/>
<path d="M0 0 C4.5613976 1.86602629 6.74794145 4.66270205 9 9 C9.74226092 13.53603898 9.20670732 16.14199279 6.6875 19.875 C4.7691977 22.44425773 4.17693026 22.94102325 1 24 C-3.22372236 24.41129881 -6.89776661 24.43130872 -10.875 22.875 C-13.68985619 20.39130336 -14.80619986 18.58140041 -16 15 C-16.29910345 10.01201005 -15.74822606 6.92089362 -12.5625 3 C-8.44181371 -0.2161454 -5.13691862 -0.53447708 0 0 Z " fill="#59F9A6" transform="translate(717,143)"/>
<path d="M0 0 C3.37548805 -0.08122832 6.74900518 -0.14061118 10.125 -0.1875 C11.55199219 -0.22520508 11.55199219 -0.22520508 13.0078125 -0.26367188 C18.42305142 -0.32008061 22.35687306 -0.14362529 27 3 C28.56935594 6.13871188 28.35201103 8.53855822 28 12 C25.8272578 14.63016161 24.05326212 16.47336894 21 18 C19.40552536 18.08400529 17.80759455 18.10727467 16.2109375 18.09765625 C15.26992188 18.09443359 14.32890625 18.09121094 13.359375 18.08789062 C11.88210938 18.07532227 11.88210938 18.07532227 10.375 18.0625 C9.38242187 18.05798828 8.38984375 18.05347656 7.3671875 18.04882812 C4.91143278 18.03702161 2.45570894 18.01908582 0 18 C0 12.06 0 6.12 0 0 Z " fill="#F6F6F6" transform="translate(365,122)"/>
<path d="M0 0 C3.06303578 -0.08115993 6.12390815 -0.14057409 9.1875 -0.1875 C10.48397461 -0.22520508 10.48397461 -0.22520508 11.80664062 -0.26367188 C16.68835222 -0.3197835 20.067322 -0.25490183 24 3 C25.59875351 6.19750701 25.50166324 9.52958991 25 13 C22.67050754 16.24465021 20.82950978 17.26087104 17 18 C15.63199181 18.07708723 14.26076408 18.10803609 12.890625 18.09765625 C12.21032227 18.09515869 11.53001953 18.09266113 10.82910156 18.09008789 C9.97799805 18.08098389 9.12689453 18.07187988 8.25 18.0625 C5.5275 18.041875 2.805 18.02125 0 18 C0 12.06 0 6.12 0 0 Z " fill="#F4F4F4" transform="translate(365,98)"/>
<path d="M0 0 C3.53571429 0.53571429 3.53571429 0.53571429 5 2 C5.10367027 3.55450988 5.13851522 5.11368255 5.14526367 6.67163086 C5.15483345 8.16339088 5.15483345 8.16339088 5.16459656 9.68528748 C5.16570938 10.76754105 5.1668222 11.84979462 5.16796875 12.96484375 C5.17129715 14.0684877 5.17462555 15.17213165 5.17805481 16.30921936 C5.18312886 18.64876894 5.18546299 20.98832578 5.18530273 23.32788086 C5.18748848 26.91857766 5.20563734 30.50896704 5.22460938 34.09960938 C5.22754327 36.36718644 5.22952809 38.63476498 5.23046875 40.90234375 C5.23765427 41.98257309 5.24483978 43.06280243 5.25224304 44.17576599 C5.24916641 45.17342484 5.24608978 46.17108368 5.24291992 47.19897461 C5.24434494 48.07976181 5.24576996 48.96054901 5.24723816 49.86802673 C5 52 5 52 3 54 C-0.53571429 53.46428571 -0.53571429 53.46428571 -2 52 C-2.10367027 50.44549012 -2.13851522 48.88631745 -2.14526367 47.32836914 C-2.15164352 46.33386246 -2.15802338 45.33935577 -2.16459656 44.31471252 C-2.16570938 43.23245895 -2.1668222 42.15020538 -2.16796875 41.03515625 C-2.17129715 39.9315123 -2.17462555 38.82786835 -2.17805481 37.69078064 C-2.18312886 35.35123106 -2.18546299 33.01167422 -2.18530273 30.67211914 C-2.18748848 27.08142234 -2.20563734 23.49103296 -2.22460938 19.90039062 C-2.22754327 17.63281356 -2.22952809 15.36523502 -2.23046875 13.09765625 C-2.23765427 12.01742691 -2.24483978 10.93719757 -2.25224304 9.82423401 C-2.24916641 8.82657516 -2.24608978 7.82891632 -2.24291992 6.80102539 C-2.24434494 5.92023819 -2.24576996 5.03945099 -2.24723816 4.13197327 C-2 2 -2 2 0 0 Z " fill="#161616" transform="translate(413,92)"/>
<path d="M0 0 C1.88529922 0.00666183 1.88529922 0.00666183 3.8086853 0.01345825 C4.50148087 0.0131662 5.19427643 0.01287415 5.9080658 0.01257324 C8.20237673 0.01396872 10.49636456 0.02953984 12.7906189 0.04519653 C14.37959618 0.0489259 15.96857575 0.05177323 17.55755615 0.05377197 C21.74319794 0.0614145 25.9287013 0.08106822 30.11428833 0.10317993 C34.38398363 0.12362508 38.65370127 0.13277083 42.9234314 0.14285278 C51.30370331 0.1643136 59.68386264 0.19845692 68.0640564 0.24050903 C68.0640564 0.57050903 68.0640564 0.90050903 68.0640564 1.24050903 C45.2940564 1.57050903 22.5240564 1.90050903 -0.9359436 2.24050903 C-1.9259436 6.20050903 -2.9159436 10.16050903 -3.9359436 14.24050903 C-4.3690686 15.76675903 -4.8021936 17.29300903 -5.2484436 18.86550903 C-5.4753186 19.97925903 -5.7021936 21.09300903 -5.9359436 22.24050903 C-5.2759436 22.90050903 -4.6159436 23.56050903 -3.9359436 24.24050903 C-5.2559436 24.24050903 -6.5759436 24.24050903 -7.9359436 24.24050903 C-10.94562289 29.25664118 -12.00175441 34.4205846 -13.18984985 40.11941528 C-13.87439716 42.9830451 -14.7661572 45.5444777 -15.9359436 48.24050903 C-17.62931819 44.13407566 -16.14875704 40.52817638 -14.9359436 36.49050903 C-14.60179443 35.34002075 -14.60179443 35.34002075 -14.26089478 34.16629028 C-13.76632308 32.46658817 -13.26763959 30.76807879 -12.76553345 29.07058716 C-11.86012029 25.98184399 -10.98450477 22.88550023 -10.11172485 19.78738403 C-9.49113348 17.60494945 -8.87004475 15.42265623 -8.2484436 13.24050903 C-7.80275024 11.65544556 -7.80275024 11.65544556 -7.34805298 10.0383606 C-7.0638147 9.05319458 -6.77957642 8.06802856 -6.48672485 7.05300903 C-6.2357605 6.17257935 -5.98479614 5.29214966 -5.72622681 4.38504028 C-4.48420942 1.01467243 -3.59900378 0.29482614 0 0 Z " fill="#68EBE6" transform="translate(98.93594360351563,127.75949096679688)"/>
<path d="M0 0 C1.71565103 3.43130207 -0.25010984 6.99324875 -1.3125 10.5 C-1.53873047 11.28503906 -1.76496094 12.07007812 -1.99804688 12.87890625 C-3.74327495 18.74327495 -3.74327495 18.74327495 -6 21 C-8.9359436 21.24050903 -8.9359436 21.24050903 -12.74462891 21.22705078 C-13.78382225 21.22748886 -13.78382225 21.22748886 -14.8440094 21.22793579 C-17.13832034 21.22654031 -19.43230816 21.21096919 -21.7265625 21.1953125 C-23.31553978 21.19158314 -24.90451936 21.1887358 -26.49349976 21.18673706 C-30.67914154 21.17909453 -34.8646449 21.15944081 -39.05023193 21.1373291 C-43.31992724 21.11688396 -47.58964487 21.1077382 -51.859375 21.09765625 C-60.23964691 21.07619543 -68.61980625 21.04205211 -77 21 C-77 20.34 -77 19.68 -77 19 C-75.35 18.67 -73.7 18.34 -72 18 C-72 18.66 -72 19.32 -72 20 C-50.88 20 -29.76 20 -8 20 C-8 18.02 -8 16.04 -8 14 C-7.69836866 11.66235715 -7.37238718 9.32741989 -7 7 C-6.34 7 -5.68 7 -5 7 C-4.67 6.01 -4.34 5.02 -4 4 C-4 4.99 -4 5.98 -4 7 C-3.34 7 -2.68 7 -2 7 C-1.855625 6.030625 -1.71125 5.06125 -1.5625 4.0625 C-1 1 -1 1 0 0 Z " fill="#5FEFD3" transform="translate(128,96)"/>
<path d="M0 0 C0.33 0 0.66 0 1 0 C0.9108799 1.35524008 0.80272007 2.709229 0.6875 4.0625 C0.60048828 5.19365234 0.60048828 5.19365234 0.51171875 6.34765625 C0 9 0 9 -3 16 C-15.87 16 -28.74 16 -42 16 C-42 14.35 -42 12.7 -42 11 C-41.67 11.99 -41.34 12.98 -41 14 C-29.78 14 -18.56 14 -7 14 C-6.67 11.36 -6.34 8.72 -6 6 C-4.5625 4 -4.5625 4 -3 3 C-2.34 3 -1.68 3 -1 3 C-0.67 2.01 -0.34 1.02 0 0 Z " fill="#57E7E0" transform="translate(175,101)"/>
<path d="M0 0 C9.09230801 -0.04628063 18.18457566 -0.08184737 27.27697563 -0.10362434 C31.4986575 -0.11407464 35.72025895 -0.12825645 39.94189453 -0.15087891 C44.01377277 -0.17256303 48.08557353 -0.18455923 52.15750504 -0.18975449 C53.71329087 -0.19345824 55.26907232 -0.20069046 56.82482529 -0.21146011 C58.99903374 -0.22591638 61.17291942 -0.22798044 63.34716797 -0.22705078 C64.58626923 -0.231492 65.82537048 -0.23593323 67.10202026 -0.24050903 C70 0 70 0 72 2 C71.58862454 7.1421933 70.30864128 12.02716314 69 17 C68.01 16.01 68.01 16.01 67 15 C67.2421875 12.1796875 67.2421875 12.1796875 67.875 8.875 C68.07867187 7.77929688 68.28234375 6.68359375 68.4921875 5.5546875 C68.65976563 4.71164063 68.82734375 3.86859375 69 3 C66.17738993 1.58869497 63.77918516 1.83605673 60.62255859 1.79467773 C59.96877731 1.78477814 59.31499603 1.77487854 58.6414032 1.76467896 C56.47711833 1.73305289 54.3128115 1.70830228 52.1484375 1.68359375 C50.64913355 1.66302517 49.14983541 1.64202872 47.65054321 1.62062073 C43.70174869 1.56539012 39.75290174 1.51598524 35.80401611 1.46777344 C31.77554654 1.41756561 27.74715322 1.3618758 23.71875 1.30664062 C15.81256444 1.19904697 7.90631515 1.09760471 0 1 C0 0.67 0 0.34 0 0 Z " fill="#6CF8BB" transform="translate(70,45)"/>
<path d="M0 0 C0.99 0.66 1.98 1.32 3 2 C2.67 5.3 2.34 8.6 2 12 C1.67 11.34 1.34 10.68 1 10 C-3.16344963 17.60275786 -3.16344963 17.60275786 -5 26 C-5.66 26 -6.32 26 -7 26 C-5.55993623 17.05870856 -2.79194029 8.58894609 0 0 Z " fill="#65EED7" transform="translate(45,130)"/>
<path d="M0 0 C0.33 0 0.66 0 1 0 C1 14.52 1 29.04 1 44 C0.67 44 0.34 44 0 44 C-0.33 32.12 -0.66 20.24 -1 8 C-1.99 8.495 -1.99 8.495 -3 9 C-2.01 6.03 -1.02 3.06 0 0 Z " fill="#C3C3C3" transform="translate(274,100)"/>
<path d="M0 0 C1.00146593 3.12054154 0.96996504 5.04899365 0.07421875 8.1875 C-0.14556641 8.96867188 -0.36535156 9.74984375 -0.59179688 10.5546875 C-0.82962891 11.36164063 -1.06746094 12.16859375 -1.3125 13 C-1.53873047 13.80695313 -1.76496094 14.61390625 -1.99804688 15.4453125 C-3.06486956 19.17150585 -4.18553593 22.56135636 -6 26 C-6.37796057 20.33059147 -5.22340384 15.84597072 -3.4609375 10.453125 C-2.65826898 7.75555036 -2.65826898 7.75555036 -5 5 C-4.67 4.34 -4.34 3.68 -4 3 C-3.34 3 -2.68 3 -2 3 C-2 2.34 -2 1.68 -2 1 C-1.34 0.67 -0.68 0.34 0 0 Z " fill="#61E4ED" transform="translate(167,130)"/>
<path d="M0 0 C0.33 0 0.66 0 1 0 C0.6083965 5.95507399 -0.37124595 10.62819824 -3 16 C-3.99 16 -4.98 16 -6 16 C-5.17812739 11.61667943 -4.09845718 7.32059823 -3 3 C-2.34 3 -1.68 3 -1 3 C-0.67 2.01 -0.34 1.02 0 0 Z " fill="#68EAE3" transform="translate(175,101)"/>
<path d="M0 0 C-0.33 0.99 -0.66 1.98 -1 3 C-1.495 2.505 -1.495 2.505 -2 2 C-4.8116338 1.91138008 -7.59858255 1.88477645 -10.41015625 1.90234375 C-11.67320839 1.90446617 -11.67320839 1.90446617 -12.96177673 1.90663147 C-15.66205335 1.91224737 -18.36224828 1.92480252 -21.0625 1.9375 C-22.88867068 1.94251295 -24.71484266 1.94707621 -26.54101562 1.95117188 C-31.02737542 1.96222196 -35.51367384 1.97949721 -40 2 C-39.67 1.34 -39.34 0.68 -39 0 C-33.92817521 -0.1676542 -28.8561943 -0.32820966 -23.78393555 -0.48217773 C-22.05828803 -0.53556166 -20.33269948 -0.59088821 -18.60717773 -0.64819336 C-16.12757073 -0.7302051 -13.64783593 -0.80523843 -11.16796875 -0.87890625 C-10.39599655 -0.90594131 -9.62402435 -0.93297638 -8.82865906 -0.96083069 C-5.58570577 -1.05128101 -3.10467559 -1.03489186 0 0 Z " fill="#ECF9F8" transform="translate(182,75)"/>
<path d="M0 0 C3 4 3 4 3 7 C2.34 7 1.68 7 1 7 C1 16.9 1 26.8 1 37 C0.67 37 0.34 37 0 37 C0 24.79 0 12.58 0 0 Z " fill="#ECECEC" transform="translate(230,101)"/>
<path d="M0 0 C1.36724819 2.73449637 0.64208017 3.88601412 -0.21484375 6.7890625 C-0.48876953 7.73007813 -0.76269531 8.67109375 -1.04492188 9.640625 C-1.33947266 10.62546875 -1.63402344 11.6103125 -1.9375 12.625 C-2.22818359 13.61757812 -2.51886719 14.61015625 -2.81835938 15.6328125 C-3.53912896 18.09051863 -4.266593 20.54604104 -5 23 C-5.33 23 -5.66 23 -6 23 C-6.33 20.36 -6.66 17.72 -7 15 C-6.34 14.67 -5.68 14.34 -5 14 C-4.26924352 11.6859378 -3.59861742 9.35171131 -3 7 C-3.66 6.67 -4.32 6.34 -5 6 C-4.34 5.34 -3.68 4.68 -3 4 C-1.98758315 2.67607028 -0.98560611 1.34400833 0 0 Z " fill="#65F3CC" transform="translate(135,70)"/>
<path d="M0 0 C2.37262045 8.4788118 -1.07680278 17.45831991 -5 25 C-5.33 25 -5.66 25 -6 25 C-5.33854315 19.33580057 -4.01244028 14.03729239 -2.4375 8.5625 C-2.20353516 7.73556641 -1.96957031 6.90863281 -1.72851562 6.05664062 C-1.15636985 4.03661574 -0.57874796 2.01814324 0 0 Z " fill="#75F7CD" transform="translate(56,90)"/>
<path d="M0 0 C1.32 0.66 2.64 1.32 4 2 C3.01 2.33 2.02 2.66 1 3 C1 5.31 1 7.62 1 10 C0.34 10 -0.32 10 -1 10 C-1.66 12.64 -2.32 15.28 -3 18 C-3.66 17.34 -4.32 16.68 -5 16 C-4.51093476 13.38868802 -3.92992749 10.97589494 -3.1875 8.4375 C-2.99607422 7.73947266 -2.80464844 7.04144531 -2.60742188 6.32226562 C-1.16053529 1.16053529 -1.16053529 1.16053529 0 0 Z " fill="#6BFAB4" transform="translate(69,46)"/>
<path d="M0 0 C0.66 0 1.32 0 2 0 C1.40075776 4.19469571 0.42500059 8.00999834 -1 12 C-1.99 11.67 -2.98 11.34 -4 11 C-4.33 8.69 -4.66 6.38 -5 4 C-3.35 4 -1.7 4 0 4 C0 2.68 0 1.36 0 0 Z " fill="#5EDDFC" transform="translate(150,188)"/>
<path d="M0 0 C0.99 0.99 1.98 1.98 3 3 C2.01 5.97 1.02 8.94 0 12 C-1.32 11.67 -2.64 11.34 -4 11 C-3.7525 9.824375 -3.7525 9.824375 -3.5 8.625 C-2.9376293 6.11791961 -2.9376293 6.11791961 -3 4 C-2.01 4 -1.02 4 0 4 C0 2.68 0 1.36 0 0 Z " fill="#57E5E7" transform="translate(76,156)"/>
<path d="M0 0 C0.66 0 1.32 0 2 0 C1.71653722 1.91789713 1.4228972 3.83429183 1.125 5.75 C0.88136719 7.35101563 0.88136719 7.35101563 0.6328125 8.984375 C0 12 0 12 -2 16 C-2 11.71 -2 7.42 -2 3 C-1.34 3 -0.68 3 0 3 C0 2.01 0 1.02 0 0 Z " fill="#6AE3FA" transform="translate(157,162)"/>
<path d="M0 0 C0.33 0 0.66 0 1 0 C1.19294408 4.82360189 0.75747614 8.49646738 -1 13 C-2.51297182 10.59704475 -3.03665969 9.36659693 -2.75 6.5 C-2.045492 4.15164001 -1.18844709 2.13920477 0 0 Z " fill="#60ECDC" transform="translate(85,129)"/>
<path d="M0 0 C0.99 1.32 1.98 2.64 3 4 C-0.4019487 6.09350689 -3.05272412 6.17942163 -7 6 C-5.75 4.5 -5.75 4.5 -4 3 C-2.68 3 -1.36 3 0 3 C0 2.01 0 1.02 0 0 Z " fill="#66F8AD" transform="translate(719,161)"/>
<path d="M0 0 C2 3 2 3 1.625 6.1875 C1.41875 7.115625 1.2125 8.04375 1 9 C0.01 9.33 -0.98 9.66 -2 10 C-1.34 6.7 -0.68 3.4 0 0 Z " fill="#E3FAF9" transform="translate(84,139)"/>
<path d="M0 0 C0.66 0 1.32 0 2 0 C1.49287967 3.71888239 0.88391785 6.73454239 -1 10 C-1.125 3.375 -1.125 3.375 0 0 Z " fill="#7DE9F9" transform="translate(162,146)"/>
</svg>
